<svg width="35" height="34" viewBox="0 0 35 34" fill="none" xmlns="http://www.w3.org/2000/svg">
<circle cx="17.4667" cy="17" r="17" fill="#6D0FF2"/>
<path d="M13.5944 16.2833C13.0422 16.2833 12.5944 16.731 12.5944 17.2833C12.5944 17.8356 13.0422 18.2833 13.5944 18.2833V16.2833ZM21.9056 18.2833C22.4578 18.2833 22.9056 17.8356 22.9056 17.2833C22.9056 16.731 22.4578 16.2833 21.9056 16.2833V18.2833ZM16.75 21.4389C16.75 21.9912 17.1977 22.4389 17.75 22.4389C18.3023 22.4389 18.75 21.9912 18.75 21.4389H16.75ZM18.75 13.1278C18.75 12.5755 18.3023 12.1278 17.75 12.1278C17.1977 12.1278 16.75 12.5755 16.75 13.1278H18.75ZM17.75 25.6333C13.1384 25.6333 9.39999 21.8949 9.39999 17.2833H7.39999C7.39999 22.9995 12.0338 27.6333 17.75 27.6333V25.6333ZM9.39999 17.2833C9.39999 12.6717 13.1384 8.93332 17.75 8.93332V6.93332C12.0338 6.93332 7.39999 11.5672 7.39999 17.2833H9.39999ZM17.75 8.93332C22.3616 8.93332 26.1 12.6717 26.1 17.2833H28.1C28.1 11.5672 23.4661 6.93332 17.75 6.93332V8.93332ZM26.1 17.2833C26.1 21.8949 22.3616 25.6333 17.75 25.6333V27.6333C23.4661 27.6333 28.1 22.9995 28.1 17.2833H26.1ZM13.5944 18.2833H21.9056V16.2833H13.5944V18.2833ZM18.75 21.4389V13.1278H16.75V21.4389H18.75Z" fill="currentColor"/>
</svg>
