<svg width="15" height="19" viewBox="0 0 15 19" fill="none" xmlns="http://www.w3.org/2000/svg">
<path d="M1.29448 15.7484V4.32512C1.29448 3.36306 1.29448 2.8821 1.48171 2.51464C1.6464 2.19142 1.909 1.92861 2.23222 1.76392C2.59967 1.57669 3.08106 1.57669 4.04311 1.57669H11.945C12.426 1.57669 12.6667 1.57669 12.8504 1.6703C13.012 1.75265 13.1427 1.88405 13.2251 2.04567C13.3187 2.22939 13.319 2.46988 13.319 2.9509V13.0859C13.319 13.5669 13.3187 13.8075 13.2251 13.9912C13.1427 14.1528 13.012 14.2842 12.8504 14.3665C12.6667 14.4601 12.4258 14.4601 11.9448 14.4601H3.22699C2.1597 14.4601 1.29448 15.3253 1.29448 16.3926C1.29448 16.7484 1.58288 17.0368 1.93865 17.0368H11.0859C11.5669 17.0368 11.8078 17.0368 11.9915 16.9432C12.1531 16.8608 12.2838 16.7295 12.3662 16.5679C12.4598 16.3841 12.4601 16.1436 12.4601 15.6626V14.4601" stroke="currentColor" stroke-width="2" stroke-linecap="round" stroke-linejoin="round"/>
</svg>
