<svg width="20" height="18" viewBox="0 0 20 18" fill="none" xmlns="http://www.w3.org/2000/svg">
<path d="M13.7656 5.1992H17.6593C18.1969 5.1992 18.6327 5.63502 18.6327 6.17262V16.8802L15.3878 14.1846C15.2131 14.0394 14.9933 13.9599 14.7661 13.9599H6.95172C6.41412 13.9599 5.97831 13.5241 5.97831 12.9865V10.0663M12.7922 1.30554C13.3298 1.30554 13.7656 1.74135 13.7656 2.27896V9.09286C13.7656 9.63047 13.3298 10.0663 12.7922 10.0663H4.9778C4.75059 10.0663 4.53088 10.1458 4.35611 10.291L1.11123 12.9865V2.27896C1.11123 1.74135 1.54705 1.30554 2.08465 1.30554H12.7922Z" stroke="currentColor" stroke-opacity="currentOpacity" stroke-width="2" stroke-linecap="round" stroke-linejoin="round"/>
</svg>
