<svg width="19" height="19" viewBox="0 0 19 19" fill="none" xmlns="http://www.w3.org/2000/svg">
<path d="M3.94328 16.1409L3.23617 16.848L3.94328 16.1409ZM2.85905 15.0566L3.56615 14.3495L2.85905 15.0566ZM2.85905 10.7197L3.56615 11.4268L2.85905 10.7197ZM10.7197 2.85905L10.0126 2.15194H10.0126L10.7197 2.85905ZM15.0567 2.85905L15.7638 2.15194V2.15194L15.0567 2.85905ZM16.141 3.94328L15.4339 4.65038V4.65038L16.141 3.94328ZM16.1412 8.2802L15.4341 7.5731L16.1412 8.2802ZM8.28056 16.1409L8.98766 16.848L8.28056 16.1409ZM17.4217 5.51943L18.3727 5.21042V5.21042L17.4217 5.51943ZM17.4217 6.70396L16.4706 6.39494L17.4217 6.70396ZM12.2961 1.57831L11.9871 0.627249L12.2961 1.57831ZM13.4807 1.57831L13.7897 0.627249L13.4807 1.57831ZM1.57831 13.4804L0.627249 13.7894L1.57831 13.4804ZM1.57831 12.2959L0.627249 11.9868L1.57831 12.2959ZM5.5199 17.4216L5.82892 16.4705L5.5199 17.4216ZM6.70408 17.4216L6.39506 16.4705L6.70408 17.4216ZM4.78653 8.79289C4.39601 8.40237 3.76284 8.40237 3.37232 8.79289C2.98179 9.18342 2.98179 9.81658 3.37232 10.2071L4.78653 8.79289ZM5.40525 12.24C5.79577 12.6306 6.42894 12.6306 6.81946 12.24C7.20999 11.8495 7.20999 11.2163 6.81946 10.8258L5.40525 12.24ZM7.49682 6.08214C7.10629 5.69161 6.47313 5.69161 6.0826 6.08214C5.69208 6.47266 5.69208 7.10583 6.0826 7.49635L7.49682 6.08214ZM8.11554 9.52928C8.50606 9.91981 9.13923 9.91981 9.52975 9.52928C9.92027 9.13876 9.92027 8.50559 9.52975 8.11507L8.11554 9.52928ZM10.2071 3.37185C9.81658 2.98133 9.18341 2.98133 8.79289 3.37185C8.40237 3.76237 8.40237 4.39554 8.79289 4.78606L10.2071 3.37185ZM10.8258 6.819C11.2163 7.20952 11.8495 7.20952 12.24 6.819C12.6306 6.42847 12.6306 5.79531 12.24 5.40478L10.8258 6.819ZM4.65038 15.4337L3.56615 14.3495L2.15194 15.7637L3.23617 16.848L4.65038 15.4337ZM3.56615 11.4268L11.4268 3.56615L10.0126 2.15194L2.15194 10.0126L3.56615 11.4268ZM14.3496 3.56615L15.4339 4.65038L16.8481 3.23617L15.7638 2.15194L14.3496 3.56615ZM15.4341 7.5731L7.57345 15.4338L8.98766 16.848L16.8483 8.98731L15.4341 7.5731ZM15.4339 4.65038C15.825 5.04156 16.0753 5.29297 16.2503 5.49906C16.4177 5.69621 16.4566 5.78519 16.4706 5.82845L18.3727 5.21042C18.2446 4.81605 18.0227 4.49646 17.775 4.2047C17.5349 3.92187 17.2159 3.60402 16.8481 3.23617L15.4339 4.65038ZM16.8483 8.98731C17.2163 8.61938 17.5352 8.3015 17.7752 8.01858C18.0229 7.72672 18.2447 7.40718 18.3727 7.01298L16.4706 6.39494C16.4565 6.43837 16.4176 6.52744 16.2503 6.72453C16.0755 6.93057 15.8252 7.182 15.4341 7.5731L16.8483 8.98731ZM16.4706 5.82845C16.5305 6.01255 16.5305 6.21084 16.4706 6.39494L18.3727 7.01298C18.5631 6.42719 18.5631 5.79621 18.3727 5.21042L16.4706 5.82845ZM11.4268 3.56615C11.818 3.17502 12.0694 2.9247 12.2755 2.74976C12.4727 2.58239 12.5618 2.54344 12.6051 2.52936L11.9871 0.627249C11.5928 0.755367 11.2731 0.977271 10.9813 1.22496C10.6984 1.46509 10.3805 1.78404 10.0126 2.15194L11.4268 3.56615ZM15.7638 2.15194C15.396 1.78413 15.0782 1.46517 14.7955 1.22508C14.5037 0.97739 14.1842 0.755403 13.7897 0.627249L13.1717 2.52936C13.2149 2.5434 13.3038 2.58227 13.501 2.74965C13.707 2.92462 13.9584 3.17493 14.3496 3.56615L15.7638 2.15194ZM12.6051 2.52936C12.7892 2.46954 12.9876 2.46954 13.1717 2.52936L13.7897 0.627249C13.204 0.436913 12.5729 0.436913 11.9871 0.627249L12.6051 2.52936ZM3.56615 14.3495C3.17499 13.9583 2.92467 13.7069 2.74972 13.5008C2.58235 13.3037 2.54343 13.2146 2.52936 13.1714L0.627249 13.7894C0.75538 14.1837 0.977313 14.5033 1.225 14.7951C1.46511 15.078 1.78407 15.3959 2.15194 15.7637L3.56615 14.3495ZM2.15194 10.0126C1.7841 10.3804 1.46514 10.6983 1.22504 10.9811C0.977348 11.2729 0.755391 11.5925 0.627249 11.9868L2.52936 12.6049C2.54341 12.5616 2.58231 12.4727 2.74969 12.2755C2.92465 12.0694 3.17496 11.818 3.56615 11.4268L2.15194 10.0126ZM2.52936 13.1714C2.46954 12.9873 2.46954 12.789 2.52936 12.6049L0.627249 11.9868C0.436913 12.5726 0.436913 13.2036 0.627249 13.7894L2.52936 13.1714ZM3.23617 16.848C3.60414 17.2159 3.92209 17.5349 4.20512 17.775C4.49702 18.0227 4.81666 18.2445 5.21088 18.3726L5.82892 16.4705C5.78551 16.4564 5.69635 16.4174 5.49911 16.25C5.29299 16.0751 5.04145 15.8248 4.65038 15.4337L3.23617 16.848ZM7.57345 15.4338C7.18235 15.8249 6.93085 16.0752 6.72475 16.2501C6.52754 16.4174 6.43844 16.4564 6.39506 16.4705L7.0131 18.3726C7.40735 18.2445 7.72697 18.0227 8.01883 17.775C8.3018 17.5349 8.61973 17.2159 8.98766 16.848L7.57345 15.4338ZM5.21088 18.3726C5.79668 18.563 6.4273 18.563 7.0131 18.3726L6.39506 16.4705C6.21096 16.5303 6.01302 16.5303 5.82892 16.4705L5.21088 18.3726ZM3.37232 10.2071L5.40525 12.24L6.81946 10.8258L4.78653 8.79289L3.37232 10.2071ZM6.0826 7.49635L8.11554 9.52928L9.52975 8.11507L7.49682 6.08214L6.0826 7.49635ZM8.79289 4.78606L10.8258 6.819L12.24 5.40478L10.2071 3.37185L8.79289 4.78606Z" fill="currentColor"/>
</svg>
