<svg width="14" height="4" viewBox="0 0 14 4" fill="none" xmlns="http://www.w3.org/2000/svg">
<path d="M1.52947 3.15696C1.13104 3.15696 0.788944 3.0161 0.503196 2.73438C0.221473 2.44863 0.0806108 2.10653 0.0806108 1.7081C0.0806108 1.31368 0.221473 0.975615 0.503196 0.693892C0.788944 0.412168 1.13104 0.271307 1.52947 0.271307C1.91584 0.271307 2.25391 0.412168 2.54368 0.693892C2.83345 0.975615 2.97834 1.31368 2.97834 1.7081C2.97834 1.97372 2.90992 2.21721 2.77308 2.43857C2.64027 2.65589 2.4652 2.83097 2.24787 2.96378C2.03054 3.09257 1.79107 3.15696 1.52947 3.15696ZM6.59295 3.15696C6.19451 3.15696 5.85242 3.0161 5.56667 2.73438C5.28495 2.44863 5.14409 2.10653 5.14409 1.7081C5.14409 1.31368 5.28495 0.975615 5.56667 0.693892C5.85242 0.412168 6.19451 0.271307 6.59295 0.271307C6.97931 0.271307 7.31738 0.412168 7.60716 0.693892C7.89693 0.975615 8.04181 1.31368 8.04181 1.7081C8.04181 1.97372 7.9734 2.21721 7.83656 2.43857C7.70375 2.65589 7.52868 2.83097 7.31135 2.96378C7.09402 3.09257 6.85455 3.15696 6.59295 3.15696ZM11.6564 3.15696C11.258 3.15696 10.9159 3.0161 10.6301 2.73438C10.3484 2.44863 10.2076 2.10653 10.2076 1.7081C10.2076 1.31368 10.3484 0.975615 10.6301 0.693892C10.9159 0.412168 11.258 0.271307 11.6564 0.271307C12.0428 0.271307 12.3809 0.412168 12.6706 0.693892C12.9604 0.975615 13.1053 1.31368 13.1053 1.7081C13.1053 1.97372 13.0369 2.21721 12.9 2.43857C12.7672 2.65589 12.5922 2.83097 12.3748 2.96378C12.1575 3.09257 11.918 3.15696 11.6564 3.15696Z" fill="currentColor" fill-opacity="currentOpacity"/>
</svg>
