<svg width="18" height="19" viewBox="0 0 18 19" fill="none" xmlns="http://www.w3.org/2000/svg">
<path d="M16.9755 14.96V9.55958V9.55888C16.9755 9.03922 16.9755 8.77925 16.9123 8.53733C16.8562 8.32284 16.7639 8.11944 16.6394 7.93602C16.4989 7.72905 16.3034 7.55784 15.9119 7.21533L11.2396 3.12699C10.5128 2.49107 10.1494 2.17315 9.74045 2.05221C9.3801 1.94565 8.99621 1.94565 8.63586 2.05221C8.22712 2.17309 7.86411 2.49072 7.13814 3.12595L7.13695 3.12699L2.46456 7.21533L2.46362 7.21615C2.0728 7.55812 1.87726 7.72922 1.73687 7.93603C1.61236 8.11944 1.52012 8.32284 1.46408 8.53733C1.40083 8.77936 1.40083 9.03945 1.40083 9.55958V14.96C1.40083 15.8671 1.40083 16.3206 1.54903 16.6784C1.74662 17.1554 2.12584 17.5344 2.60287 17.732C2.96064 17.8802 3.41419 17.8802 4.3213 17.8802C5.22841 17.8802 5.68174 17.8802 6.03951 17.732C6.51654 17.5344 6.89544 17.1554 7.09303 16.6784C7.24122 16.3206 7.24132 15.8671 7.24132 14.9599V13.9865C7.24132 12.9113 8.11295 12.0397 9.18815 12.0397C10.2634 12.0397 11.135 12.9113 11.135 13.9865V14.9599C11.135 15.8671 11.135 16.3206 11.2832 16.6784C11.4808 17.1554 11.86 17.5344 12.337 17.732C12.6948 17.8802 13.1483 17.8802 14.0555 17.8802C14.9626 17.8802 15.4159 17.8802 15.7737 17.732C16.2507 17.5344 16.6296 17.1554 16.8272 16.6784C16.9754 16.3206 16.9755 15.8671 16.9755 14.96Z" stroke="currentColor" stroke-width="2" stroke-linecap="round" stroke-linejoin="round" stroke-opacity="currentOpacity"/>
</svg>
