<svg width="118" height="24" viewBox="0 0 118 24" fill="none" xmlns="http://www.w3.org/2000/svg">
<path d="M5.74016 6.77967V10.8582H12.3093V14.6487H5.74016V19.071H13.17V23.0067H0.834503V2.87081L2.46452 2.84625H13.17V6.7819H5.74016V6.77967Z" fill="white"/>
<path d="M16.3119 10.6283C16.934 9.38261 17.7791 8.42716 18.8516 7.75522C19.922 7.08551 21.1194 6.75066 22.4372 6.75066C23.4897 6.75066 24.4508 6.97166 25.3204 7.41143C26.1901 7.85121 26.8746 8.44502 27.3719 9.19286V1.75464H32.2775V23.0067H27.3719V20.7096C26.9125 21.4753 26.257 22.0892 25.4074 22.5468C24.5556 23.0067 23.5655 23.2366 22.4372 23.2366C21.1172 23.2366 19.922 22.8973 18.8516 22.2164C17.7813 21.5378 16.934 20.5712 16.3119 19.3166C15.6897 18.062 15.3798 16.6132 15.3798 14.9657C15.3798 13.3183 15.6897 11.8739 16.3119 10.6283ZM26.3528 12.0927C25.481 11.1841 24.3638 10.856 23.0036 11.1149C22.9211 11.1305 22.8341 11.1551 22.7561 11.1886C21.1662 11.8315 20.3724 13.0906 20.3724 14.9635C20.3724 16.1891 20.7113 17.1601 21.3914 17.879C22.0693 18.5978 22.8966 18.955 23.8733 18.955C24.8499 18.955 25.675 18.6022 26.3551 17.8924C27.0329 17.1847 27.3741 16.2181 27.3741 14.9903C27.3741 13.7625 27.0352 12.7981 26.3551 12.0905L26.3528 12.0927Z" fill="white"/>
<path d="M51.6415 6.98059V23.0067H46.7359V20.8234C46.2386 21.5311 45.5652 22.1026 44.7134 22.5312C43.8616 22.962 42.9206 23.1786 41.8882 23.1786C40.664 23.1786 39.5825 22.9062 38.646 22.3593C37.7094 21.8146 36.9825 21.0244 36.4652 19.9908C35.9479 18.9572 35.6914 17.7406 35.6914 16.3431V6.98059H40.5681V15.6823C40.5681 16.7539 40.8446 17.5865 41.3998 18.1803C41.9551 18.7741 42.6998 19.071 43.6386 19.071C44.5774 19.071 45.3511 18.7741 45.9064 18.1803C46.4616 17.5865 46.7381 16.7539 46.7381 15.6823V6.98059H51.6437H51.6415Z" fill="white"/>
<path d="M69.4134 8.6303C70.5328 9.84693 71.0925 11.5167 71.0925 13.6419V23.0045H66.2158V14.3027C66.2158 13.2312 65.9393 12.3985 65.3841 11.8047C64.8288 11.2109 64.0841 10.914 63.1453 10.914C62.2065 10.914 61.4618 11.2109 60.9065 11.8047C60.3513 12.3985 60.0748 13.2312 60.0748 14.3027V23.0045H55.1691V6.97835H60.0748V9.10356C60.572 8.3959 61.241 7.83558 62.0839 7.42259C62.9245 7.01184 63.8722 6.80423 64.9247 6.80423C66.8 6.80423 68.2962 7.41143 69.4156 8.62807L69.4134 8.6303Z" fill="white"/>
<path d="M74.1674 3.60973C74.1674 3.60973 74.163 3.6008 74.163 3.5941C73.8798 2.40648 74.1139 1.45996 74.8631 0.761235C75.4072 0.25449 76.1118 0 76.9726 0C77.8333 0 78.5067 0.25449 79.053 0.761235C79.8111 1.46666 80.0408 2.42211 79.7465 3.62312C79.7465 3.62312 79.7465 3.62312 79.7465 3.62536C79.1511 4.75046 78.2257 5.31302 76.9726 5.31302C75.7194 5.31302 74.7494 4.746 74.1696 3.60749L74.1674 3.60973ZM79.4098 6.98059V23.0067H74.5041V6.98059H79.4098Z" fill="white"/>
<path d="M86.0235 22.2298C84.7703 21.5601 83.7847 20.6024 83.0689 19.3568C82.3509 18.1134 81.9942 16.6579 81.9942 14.9903C81.9942 13.3227 82.3576 11.894 83.0845 10.6394C83.8115 9.38483 84.806 8.42268 86.0681 7.75297C87.3302 7.08327 88.7461 6.74841 90.3137 6.74841C91.8813 6.74841 93.2972 7.08327 94.5593 7.75297C95.8214 8.42268 96.8159 9.38483 97.5429 10.6394C98.2698 11.894 98.6333 13.345 98.6333 14.9903C98.6333 16.6355 98.2653 18.0866 97.5295 19.3411C96.7936 20.5957 95.788 21.5579 94.517 22.2276C93.246 22.8973 91.8255 23.2321 90.258 23.2321C88.6904 23.2321 87.2789 22.8973 86.0257 22.2276L86.0235 22.2298ZM92.6506 17.9504C93.3106 17.2606 93.6406 16.2761 93.6406 14.9925C93.6406 13.7089 93.3195 12.7244 92.6796 12.0346C92.0396 11.3448 91.2502 11.0011 90.3137 11.0011C89.3772 11.0011 88.5633 11.3404 87.9322 12.0212C87.3012 12.6999 86.9868 13.691 86.9868 14.9925C86.9868 16.294 87.2967 17.2606 87.9189 17.9504C88.541 18.6402 89.3192 18.984 90.258 18.984C91.1967 18.984 91.9928 18.638 92.6528 17.9504H92.6506Z" fill="white"/>
<path d="M115.486 8.6303C116.606 9.84693 117.165 11.5167 117.165 13.6419V23.0045H112.289V14.3027C112.289 13.2312 112.012 12.3985 111.457 11.8047C110.902 11.2109 110.157 10.914 109.218 10.914C108.28 10.914 107.535 11.2109 106.98 11.8047C106.424 12.3985 106.148 13.2312 106.148 14.3027V23.0045H101.242V6.97835H106.148V9.10356C106.645 8.3959 107.314 7.83558 108.157 7.42259C108.998 7.01184 109.945 6.80423 110.998 6.80423C112.873 6.80423 114.369 7.41143 115.489 8.62807L115.486 8.6303Z" fill="white"/>
<path d="M14.8045 2.87082V6.39571L16.6753 7.75745L18.5439 6.39571V2.87082H14.8045Z" fill="#6D0FF2"/>
</svg>
