<svg width="21" height="21" viewBox="0 0 21 21" fill="none" xmlns="http://www.w3.org/2000/svg">
<path d="M13.996 12.5818C13.6055 12.1913 12.9723 12.1913 12.5818 12.5818C12.1913 12.9723 12.1913 13.6055 12.5818 13.996L13.996 12.5818ZM18.6262 20.0405C19.0167 20.431 19.6499 20.431 20.0404 20.0405C20.431 19.6499 20.431 19.0168 20.0404 18.6262L18.6262 20.0405ZM8.25185 14.3037C4.9095 14.3037 2.2 11.5942 2.2 8.25186H0.199997C0.199997 12.6988 3.80493 16.3037 8.25185 16.3037V14.3037ZM2.2 8.25186C2.2 4.90952 4.9095 2.20001 8.25185 2.20001V0.200012C3.80493 0.200012 0.199997 3.80495 0.199997 8.25186H2.2ZM8.25185 2.20001C11.5942 2.20001 14.3037 4.90952 14.3037 8.25186H16.3037C16.3037 3.80495 12.6988 0.200012 8.25185 0.200012V2.20001ZM14.3037 8.25186C14.3037 11.5942 11.5942 14.3037 8.25185 14.3037V16.3037C12.6988 16.3037 16.3037 12.6988 16.3037 8.25186H14.3037ZM12.5818 13.996L18.6262 20.0405L20.0404 18.6262L13.996 12.5818L12.5818 13.996Z" stroke="currentColor" stroke-opacity="0.6" fill="currentColor" fill-opacity="currentOpacity"/>
</svg>
